<?xml version="1.0" encoding="UTF-8"?>
<svg width="700pt" height="700pt" version="1.1" viewBox="0 0 700 700" xmlns="http://www.w3.org/2000/svg" xmlns:xlink="http://www.w3.org/1999/xlink">
 <g>
  <path d="m350 22.398c-142.14 0-257.6 115.46-257.6 257.6s115.46 257.6 257.6 257.6 257.6-115.46 257.6-257.6-115.46-257.6-257.6-257.6zm0 22.402c130.03 0 235.2 105.17 235.2 235.2s-105.17 235.2-235.2 235.2-235.2-105.17-235.2-235.2 105.17-235.2 235.2-235.2zm55.648 117.43c-2.1406 0.11328-4.207 0.84375-5.9492 2.0977l-156.8 106.4c-3.0742 2.082-4.918 5.5586-4.918 9.2734s1.8438 7.1914 4.918 9.2734l156.8 106.4c5.125 3.4805 12.098 2.1484 15.574-2.9766 3.4805-5.1211 2.1484-12.094-2.9727-15.574l-143.15-97.125 143.15-97.125c4.3203-2.7305 6.2422-8.0391 4.6758-12.902-1.5664-4.8633-6.2266-8.0508-11.328-7.7461z"/>
 </g>
</svg>
